<mxfile host="Electron" agent="Mozilla/5.0 (X11; Linux x86_64) AppleWebKit/537.36 (KHTML, like Gecko) draw.io/24.7.17 Chrome/128.0.6613.36 Electron/32.0.1 Safari/537.36" version="24.7.17">
  <diagram name="Page-1" id="S_TT16EqhHxAYck2YcPS">
    <mxGraphModel dx="969" dy="576" grid="1" gridSize="10" guides="1" tooltips="1" connect="1" arrows="1" fold="1" page="1" pageScale="1" pageWidth="850" pageHeight="1100" math="0" shadow="0">
      <root>
        <mxCell id="0" />
        <mxCell id="1" parent="0" />
        <mxCell id="fu2yCZ1rVuJQljUfc8Ko-1" value="&lt;font face=&quot;Noto Sans&quot;&gt;Object&lt;/font&gt;" style="rounded=1;whiteSpace=wrap;html=1;absoluteArcSize=1;arcSize=14;strokeWidth=2;verticalAlign=top;" parent="1" vertex="1">
          <mxGeometry x="80" y="120" width="510" height="360" as="geometry" />
        </mxCell>
        <mxCell id="fu2yCZ1rVuJQljUfc8Ko-2" value="&lt;font face=&quot;Noto Sans&quot;&gt;Part&lt;/font&gt;" style="rounded=1;whiteSpace=wrap;html=1;absoluteArcSize=1;arcSize=14;strokeWidth=2;verticalAlign=top;fillColor=#dae8fc;strokeColor=#6c8ebf;" parent="1" vertex="1">
          <mxGeometry x="110" y="170" width="170" height="190" as="geometry" />
        </mxCell>
        <mxCell id="fu2yCZ1rVuJQljUfc8Ko-4" value="t3d_vert_load(buff[offset], 0, 70)" style="rounded=1;whiteSpace=wrap;html=1;absoluteArcSize=1;arcSize=14;strokeWidth=2;fontSize=10;fillColor=#ffe6cc;strokeColor=#d79b00;" parent="1" vertex="1">
          <mxGeometry x="120" y="200" width="150" height="30" as="geometry" />
        </mxCell>
        <mxCell id="fu2yCZ1rVuJQljUfc8Ko-11" value="&lt;div&gt;t3d_tri_draw(1,2,4)&lt;/div&gt;&lt;div&gt;t3d_tri_draw(5,6,3)&lt;br&gt;&lt;/div&gt;&lt;div&gt;...&lt;br&gt;&lt;/div&gt;" style="rounded=1;whiteSpace=wrap;html=1;absoluteArcSize=1;arcSize=14;strokeWidth=2;fontSize=10;fillColor=#d5e8d4;strokeColor=#82b366;" parent="1" vertex="1">
          <mxGeometry x="120" y="240" width="150" height="50" as="geometry" />
        </mxCell>
        <mxCell id="fu2yCZ1rVuJQljUfc8Ko-12" value="&lt;div&gt;t3d_tri_draw_strip(indices[x], 7)&lt;/div&gt;&lt;div&gt;...&lt;br&gt;&lt;/div&gt;" style="rounded=1;whiteSpace=wrap;html=1;absoluteArcSize=1;arcSize=14;strokeWidth=2;fontSize=10;fillColor=#d5e8d4;strokeColor=#82b366;" parent="1" vertex="1">
          <mxGeometry x="120" y="300" width="150" height="40" as="geometry" />
        </mxCell>
        <mxCell id="fu2yCZ1rVuJQljUfc8Ko-24" value="&lt;font face=&quot;Noto Sans&quot;&gt;Vertex Buffer (Global)&lt;br&gt;&lt;/font&gt;" style="rounded=1;whiteSpace=wrap;html=1;absoluteArcSize=1;arcSize=14;strokeWidth=2;verticalAlign=top;" parent="1" vertex="1">
          <mxGeometry x="80" y="30" width="690" height="80" as="geometry" />
        </mxCell>
        <mxCell id="fu2yCZ1rVuJQljUfc8Ko-26" value="&lt;font face=&quot;Noto Sans&quot;&gt;Object&lt;/font&gt;" style="rounded=1;whiteSpace=wrap;html=1;absoluteArcSize=1;arcSize=14;strokeWidth=2;verticalAlign=top;" parent="1" vertex="1">
          <mxGeometry x="600" y="120" width="80" height="360" as="geometry" />
        </mxCell>
        <mxCell id="fu2yCZ1rVuJQljUfc8Ko-32" value="..." style="text;html=1;align=center;verticalAlign=middle;resizable=0;points=[];autosize=1;strokeColor=none;fillColor=none;" parent="1" vertex="1">
          <mxGeometry x="625" y="280" width="30" height="30" as="geometry" />
        </mxCell>
        <mxCell id="fu2yCZ1rVuJQljUfc8Ko-40" value="" style="shape=table;startSize=0;container=1;collapsible=0;childLayout=tableLayout;fontSize=16;fillColor=#ffe6cc;strokeColor=#d79b00;" parent="1" vertex="1">
          <mxGeometry x="95" y="62" width="660" height="30" as="geometry" />
        </mxCell>
        <mxCell id="fu2yCZ1rVuJQljUfc8Ko-49" value="" style="shape=tableRow;horizontal=0;startSize=0;swimlaneHead=0;swimlaneBody=0;strokeColor=inherit;top=0;left=0;bottom=0;right=0;collapsible=0;dropTarget=0;fillColor=none;points=[[0,0.5],[1,0.5]];portConstraint=eastwest;fontSize=16;" parent="fu2yCZ1rVuJQljUfc8Ko-40" vertex="1">
          <mxGeometry width="660" height="30" as="geometry" />
        </mxCell>
        <mxCell id="fu2yCZ1rVuJQljUfc8Ko-50" value="" style="shape=partialRectangle;html=1;whiteSpace=wrap;connectable=0;strokeColor=inherit;overflow=hidden;fillColor=none;top=0;left=0;bottom=0;right=0;pointerEvents=1;fontSize=16;" parent="fu2yCZ1rVuJQljUfc8Ko-49" vertex="1">
          <mxGeometry width="33" height="30" as="geometry">
            <mxRectangle width="33" height="30" as="alternateBounds" />
          </mxGeometry>
        </mxCell>
        <mxCell id="fu2yCZ1rVuJQljUfc8Ko-51" value="" style="shape=partialRectangle;html=1;whiteSpace=wrap;connectable=0;strokeColor=inherit;overflow=hidden;fillColor=none;top=0;left=0;bottom=0;right=0;pointerEvents=1;fontSize=16;" parent="fu2yCZ1rVuJQljUfc8Ko-49" vertex="1">
          <mxGeometry x="33" width="32" height="30" as="geometry">
            <mxRectangle width="32" height="30" as="alternateBounds" />
          </mxGeometry>
        </mxCell>
        <mxCell id="fu2yCZ1rVuJQljUfc8Ko-52" value="" style="shape=partialRectangle;html=1;whiteSpace=wrap;connectable=0;strokeColor=#BD7000;overflow=hidden;fillColor=#f0a30a;top=0;left=0;bottom=0;right=0;pointerEvents=1;fontSize=16;fontColor=#000000;" parent="fu2yCZ1rVuJQljUfc8Ko-49" vertex="1">
          <mxGeometry x="65" width="34" height="30" as="geometry">
            <mxRectangle width="34" height="30" as="alternateBounds" />
          </mxGeometry>
        </mxCell>
        <mxCell id="fu2yCZ1rVuJQljUfc8Ko-69" style="shape=partialRectangle;html=1;whiteSpace=wrap;connectable=0;strokeColor=#BD7000;overflow=hidden;fillColor=#f0a30a;top=0;left=0;bottom=0;right=0;pointerEvents=1;fontSize=16;fontColor=#000000;" parent="fu2yCZ1rVuJQljUfc8Ko-49" vertex="1">
          <mxGeometry x="99" width="33" height="30" as="geometry">
            <mxRectangle width="33" height="30" as="alternateBounds" />
          </mxGeometry>
        </mxCell>
        <mxCell id="fu2yCZ1rVuJQljUfc8Ko-68" style="shape=partialRectangle;html=1;whiteSpace=wrap;connectable=0;strokeColor=#BD7000;overflow=hidden;fillColor=#f0a30a;top=0;left=0;bottom=0;right=0;pointerEvents=1;fontSize=16;fontColor=#000000;" parent="fu2yCZ1rVuJQljUfc8Ko-49" vertex="1">
          <mxGeometry x="132" width="33" height="30" as="geometry">
            <mxRectangle width="33" height="30" as="alternateBounds" />
          </mxGeometry>
        </mxCell>
        <mxCell id="fu2yCZ1rVuJQljUfc8Ko-67" style="shape=partialRectangle;html=1;whiteSpace=wrap;connectable=0;strokeColor=#BD7000;overflow=hidden;fillColor=#f0a30a;top=0;left=0;bottom=0;right=0;pointerEvents=1;fontSize=16;fontColor=#000000;" parent="fu2yCZ1rVuJQljUfc8Ko-49" vertex="1">
          <mxGeometry x="165" width="33" height="30" as="geometry">
            <mxRectangle width="33" height="30" as="alternateBounds" />
          </mxGeometry>
        </mxCell>
        <mxCell id="fu2yCZ1rVuJQljUfc8Ko-66" style="shape=partialRectangle;html=1;whiteSpace=wrap;connectable=0;strokeColor=inherit;overflow=hidden;fillColor=none;top=0;left=0;bottom=0;right=0;pointerEvents=1;fontSize=16;" parent="fu2yCZ1rVuJQljUfc8Ko-49" vertex="1">
          <mxGeometry x="198" width="33" height="30" as="geometry">
            <mxRectangle width="33" height="30" as="alternateBounds" />
          </mxGeometry>
        </mxCell>
        <mxCell id="fu2yCZ1rVuJQljUfc8Ko-65" style="shape=partialRectangle;html=1;whiteSpace=wrap;connectable=0;strokeColor=inherit;overflow=hidden;fillColor=none;top=0;left=0;bottom=0;right=0;pointerEvents=1;fontSize=16;" parent="fu2yCZ1rVuJQljUfc8Ko-49" vertex="1">
          <mxGeometry x="231" width="34" height="30" as="geometry">
            <mxRectangle width="34" height="30" as="alternateBounds" />
          </mxGeometry>
        </mxCell>
        <mxCell id="fu2yCZ1rVuJQljUfc8Ko-64" style="shape=partialRectangle;html=1;whiteSpace=wrap;connectable=0;strokeColor=inherit;overflow=hidden;fillColor=none;top=0;left=0;bottom=0;right=0;pointerEvents=1;fontSize=16;" parent="fu2yCZ1rVuJQljUfc8Ko-49" vertex="1">
          <mxGeometry x="265" width="32" height="30" as="geometry">
            <mxRectangle width="32" height="30" as="alternateBounds" />
          </mxGeometry>
        </mxCell>
        <mxCell id="fu2yCZ1rVuJQljUfc8Ko-63" style="shape=partialRectangle;html=1;whiteSpace=wrap;connectable=0;strokeColor=#BD7000;overflow=hidden;fillColor=#f0a30a;top=0;left=0;bottom=0;right=0;pointerEvents=1;fontSize=16;fontColor=#000000;" parent="fu2yCZ1rVuJQljUfc8Ko-49" vertex="1">
          <mxGeometry x="297" width="34" height="30" as="geometry">
            <mxRectangle width="34" height="30" as="alternateBounds" />
          </mxGeometry>
        </mxCell>
        <mxCell id="fu2yCZ1rVuJQljUfc8Ko-62" style="shape=partialRectangle;html=1;whiteSpace=wrap;connectable=0;strokeColor=#BD7000;overflow=hidden;fillColor=#f0a30a;top=0;left=0;bottom=0;right=0;pointerEvents=1;fontSize=16;fontColor=#000000;" parent="fu2yCZ1rVuJQljUfc8Ko-49" vertex="1">
          <mxGeometry x="331" width="33" height="30" as="geometry">
            <mxRectangle width="33" height="30" as="alternateBounds" />
          </mxGeometry>
        </mxCell>
        <mxCell id="fu2yCZ1rVuJQljUfc8Ko-61" style="shape=partialRectangle;html=1;whiteSpace=wrap;connectable=0;strokeColor=#BD7000;overflow=hidden;fillColor=#f0a30a;top=0;left=0;bottom=0;right=0;pointerEvents=1;fontSize=16;fontColor=#000000;" parent="fu2yCZ1rVuJQljUfc8Ko-49" vertex="1">
          <mxGeometry x="364" width="33" height="30" as="geometry">
            <mxRectangle width="33" height="30" as="alternateBounds" />
          </mxGeometry>
        </mxCell>
        <mxCell id="fu2yCZ1rVuJQljUfc8Ko-60" style="shape=partialRectangle;html=1;whiteSpace=wrap;connectable=0;strokeColor=#BD7000;overflow=hidden;fillColor=#f0a30a;top=0;left=0;bottom=0;right=0;pointerEvents=1;fontSize=16;fontColor=#000000;" parent="fu2yCZ1rVuJQljUfc8Ko-49" vertex="1">
          <mxGeometry x="397" width="33" height="30" as="geometry">
            <mxRectangle width="33" height="30" as="alternateBounds" />
          </mxGeometry>
        </mxCell>
        <mxCell id="fu2yCZ1rVuJQljUfc8Ko-59" style="shape=partialRectangle;html=1;whiteSpace=wrap;connectable=0;strokeColor=inherit;overflow=hidden;fillColor=none;top=0;left=0;bottom=0;right=0;pointerEvents=1;fontSize=16;" parent="fu2yCZ1rVuJQljUfc8Ko-49" vertex="1">
          <mxGeometry x="430" width="34" height="30" as="geometry">
            <mxRectangle width="34" height="30" as="alternateBounds" />
          </mxGeometry>
        </mxCell>
        <mxCell id="fu2yCZ1rVuJQljUfc8Ko-58" style="shape=partialRectangle;html=1;whiteSpace=wrap;connectable=0;strokeColor=inherit;overflow=hidden;fillColor=none;top=0;left=0;bottom=0;right=0;pointerEvents=1;fontSize=16;" parent="fu2yCZ1rVuJQljUfc8Ko-49" vertex="1">
          <mxGeometry x="464" width="32" height="30" as="geometry">
            <mxRectangle width="32" height="30" as="alternateBounds" />
          </mxGeometry>
        </mxCell>
        <mxCell id="fu2yCZ1rVuJQljUfc8Ko-57" style="shape=partialRectangle;html=1;whiteSpace=wrap;connectable=0;strokeColor=inherit;overflow=hidden;fillColor=none;top=0;left=0;bottom=0;right=0;pointerEvents=1;fontSize=16;" parent="fu2yCZ1rVuJQljUfc8Ko-49" vertex="1">
          <mxGeometry x="496" width="34" height="30" as="geometry">
            <mxRectangle width="34" height="30" as="alternateBounds" />
          </mxGeometry>
        </mxCell>
        <mxCell id="fu2yCZ1rVuJQljUfc8Ko-56" style="shape=partialRectangle;html=1;whiteSpace=wrap;connectable=0;strokeColor=inherit;overflow=hidden;fillColor=none;top=0;left=0;bottom=0;right=0;pointerEvents=1;fontSize=16;" parent="fu2yCZ1rVuJQljUfc8Ko-49" vertex="1">
          <mxGeometry x="530" width="32" height="30" as="geometry">
            <mxRectangle width="32" height="30" as="alternateBounds" />
          </mxGeometry>
        </mxCell>
        <mxCell id="fu2yCZ1rVuJQljUfc8Ko-55" style="shape=partialRectangle;html=1;whiteSpace=wrap;connectable=0;strokeColor=inherit;overflow=hidden;fillColor=none;top=0;left=0;bottom=0;right=0;pointerEvents=1;fontSize=16;" parent="fu2yCZ1rVuJQljUfc8Ko-49" vertex="1">
          <mxGeometry x="562" width="33" height="30" as="geometry">
            <mxRectangle width="33" height="30" as="alternateBounds" />
          </mxGeometry>
        </mxCell>
        <mxCell id="fu2yCZ1rVuJQljUfc8Ko-54" style="shape=partialRectangle;html=1;whiteSpace=wrap;connectable=0;strokeColor=inherit;overflow=hidden;fillColor=none;top=0;left=0;bottom=0;right=0;pointerEvents=1;fontSize=16;" parent="fu2yCZ1rVuJQljUfc8Ko-49" vertex="1">
          <mxGeometry x="595" width="32" height="30" as="geometry">
            <mxRectangle width="32" height="30" as="alternateBounds" />
          </mxGeometry>
        </mxCell>
        <mxCell id="fu2yCZ1rVuJQljUfc8Ko-53" style="shape=partialRectangle;html=1;whiteSpace=wrap;connectable=0;strokeColor=inherit;overflow=hidden;fillColor=none;top=0;left=0;bottom=0;right=0;pointerEvents=1;fontSize=16;" parent="fu2yCZ1rVuJQljUfc8Ko-49" vertex="1">
          <mxGeometry x="627" width="33" height="30" as="geometry">
            <mxRectangle width="33" height="30" as="alternateBounds" />
          </mxGeometry>
        </mxCell>
        <mxCell id="fu2yCZ1rVuJQljUfc8Ko-72" value="" style="endArrow=classic;html=1;rounded=0;exitX=0.75;exitY=0;exitDx=0;exitDy=0;entryX=0.208;entryY=1.044;entryDx=0;entryDy=0;entryPerimeter=0;fillColor=#f0a30a;strokeColor=#BD7000;" parent="1" source="fu2yCZ1rVuJQljUfc8Ko-4" target="fu2yCZ1rVuJQljUfc8Ko-49" edge="1">
          <mxGeometry width="50" height="50" relative="1" as="geometry">
            <mxPoint x="330" y="230" as="sourcePoint" />
            <mxPoint x="380" y="180" as="targetPoint" />
          </mxGeometry>
        </mxCell>
        <mxCell id="gsuWn9FiaypVqOQ3Gugr-1" value="&lt;font face=&quot;Noto Sans&quot;&gt;Index &amp;amp; Triangle-Strip Buffer (Global)&lt;br&gt;&lt;/font&gt;" style="rounded=1;whiteSpace=wrap;html=1;absoluteArcSize=1;arcSize=14;strokeWidth=2;verticalAlign=bottom;spacingBottom=2;" vertex="1" parent="1">
          <mxGeometry x="80" y="490" width="690" height="80" as="geometry" />
        </mxCell>
        <mxCell id="gsuWn9FiaypVqOQ3Gugr-2" value="" style="shape=table;startSize=0;container=1;collapsible=0;childLayout=tableLayout;fontSize=16;fillColor=#d5e8d4;strokeColor=#82b366;" vertex="1" parent="1">
          <mxGeometry x="95" y="510" width="660" height="30" as="geometry" />
        </mxCell>
        <mxCell id="gsuWn9FiaypVqOQ3Gugr-3" value="" style="shape=tableRow;horizontal=0;startSize=0;swimlaneHead=0;swimlaneBody=0;strokeColor=inherit;top=0;left=0;bottom=0;right=0;collapsible=0;dropTarget=0;fillColor=none;points=[[0,0.5],[1,0.5]];portConstraint=eastwest;fontSize=16;" vertex="1" parent="gsuWn9FiaypVqOQ3Gugr-2">
          <mxGeometry width="660" height="30" as="geometry" />
        </mxCell>
        <mxCell id="gsuWn9FiaypVqOQ3Gugr-4" value="0" style="shape=partialRectangle;html=1;whiteSpace=wrap;connectable=0;strokeColor=inherit;overflow=hidden;fillColor=none;top=0;left=0;bottom=0;right=0;pointerEvents=1;fontSize=16;" vertex="1" parent="gsuWn9FiaypVqOQ3Gugr-3">
          <mxGeometry width="33" height="30" as="geometry">
            <mxRectangle width="33" height="30" as="alternateBounds" />
          </mxGeometry>
        </mxCell>
        <mxCell id="gsuWn9FiaypVqOQ3Gugr-5" value="1" style="shape=partialRectangle;html=1;whiteSpace=wrap;connectable=0;strokeColor=#3A5431;overflow=hidden;fillColor=#6d8764;top=0;left=0;bottom=0;right=0;pointerEvents=1;fontSize=16;fontColor=#ffffff;" vertex="1" parent="gsuWn9FiaypVqOQ3Gugr-3">
          <mxGeometry x="33" width="32" height="30" as="geometry">
            <mxRectangle width="32" height="30" as="alternateBounds" />
          </mxGeometry>
        </mxCell>
        <mxCell id="gsuWn9FiaypVqOQ3Gugr-6" value="2" style="shape=partialRectangle;html=1;whiteSpace=wrap;connectable=0;strokeColor=#3A5431;overflow=hidden;fillColor=#6d8764;top=0;left=0;bottom=0;right=0;pointerEvents=1;fontSize=16;fontColor=#ffffff;" vertex="1" parent="gsuWn9FiaypVqOQ3Gugr-3">
          <mxGeometry x="65" width="34" height="30" as="geometry">
            <mxRectangle width="34" height="30" as="alternateBounds" />
          </mxGeometry>
        </mxCell>
        <mxCell id="gsuWn9FiaypVqOQ3Gugr-7" value="4" style="shape=partialRectangle;html=1;whiteSpace=wrap;connectable=0;strokeColor=#3A5431;overflow=hidden;fillColor=#6d8764;top=0;left=0;bottom=0;right=0;pointerEvents=1;fontSize=16;fontColor=#ffffff;" vertex="1" parent="gsuWn9FiaypVqOQ3Gugr-3">
          <mxGeometry x="99" width="33" height="30" as="geometry">
            <mxRectangle width="33" height="30" as="alternateBounds" />
          </mxGeometry>
        </mxCell>
        <mxCell id="gsuWn9FiaypVqOQ3Gugr-8" value="5" style="shape=partialRectangle;html=1;whiteSpace=wrap;connectable=0;strokeColor=#3A5431;overflow=hidden;fillColor=#6d8764;top=0;left=0;bottom=0;right=0;pointerEvents=1;fontSize=16;fontColor=#ffffff;" vertex="1" parent="gsuWn9FiaypVqOQ3Gugr-3">
          <mxGeometry x="132" width="33" height="30" as="geometry">
            <mxRectangle width="33" height="30" as="alternateBounds" />
          </mxGeometry>
        </mxCell>
        <mxCell id="gsuWn9FiaypVqOQ3Gugr-9" value="6" style="shape=partialRectangle;html=1;whiteSpace=wrap;connectable=0;strokeColor=#3A5431;overflow=hidden;fillColor=#6d8764;top=0;left=0;bottom=0;right=0;pointerEvents=1;fontSize=16;fontColor=#ffffff;" vertex="1" parent="gsuWn9FiaypVqOQ3Gugr-3">
          <mxGeometry x="165" width="33" height="30" as="geometry">
            <mxRectangle width="33" height="30" as="alternateBounds" />
          </mxGeometry>
        </mxCell>
        <mxCell id="gsuWn9FiaypVqOQ3Gugr-10" value="3" style="shape=partialRectangle;html=1;whiteSpace=wrap;connectable=0;strokeColor=#3A5431;overflow=hidden;fillColor=#6d8764;top=0;left=0;bottom=0;right=0;pointerEvents=1;fontSize=16;fontColor=#ffffff;" vertex="1" parent="gsuWn9FiaypVqOQ3Gugr-3">
          <mxGeometry x="198" width="33" height="30" as="geometry">
            <mxRectangle width="33" height="30" as="alternateBounds" />
          </mxGeometry>
        </mxCell>
        <mxCell id="gsuWn9FiaypVqOQ3Gugr-11" value="2" style="shape=partialRectangle;html=1;whiteSpace=wrap;connectable=0;strokeColor=#82b366;overflow=hidden;fillColor=#d5e8d4;top=0;left=0;bottom=0;right=0;pointerEvents=1;fontSize=16;" vertex="1" parent="gsuWn9FiaypVqOQ3Gugr-3">
          <mxGeometry x="231" width="34" height="30" as="geometry">
            <mxRectangle width="34" height="30" as="alternateBounds" />
          </mxGeometry>
        </mxCell>
        <mxCell id="gsuWn9FiaypVqOQ3Gugr-12" value="7" style="shape=partialRectangle;html=1;whiteSpace=wrap;connectable=0;strokeColor=#3A5431;overflow=hidden;fillColor=#6d8764;top=0;left=0;bottom=0;right=0;pointerEvents=1;fontSize=16;fontColor=#ffffff;" vertex="1" parent="gsuWn9FiaypVqOQ3Gugr-3">
          <mxGeometry x="265" width="32" height="30" as="geometry">
            <mxRectangle width="32" height="30" as="alternateBounds" />
          </mxGeometry>
        </mxCell>
        <mxCell id="gsuWn9FiaypVqOQ3Gugr-13" value="8" style="shape=partialRectangle;html=1;whiteSpace=wrap;connectable=0;strokeColor=#3A5431;overflow=hidden;fillColor=#6d8764;top=0;left=0;bottom=0;right=0;pointerEvents=1;fontSize=16;fontColor=#ffffff;" vertex="1" parent="gsuWn9FiaypVqOQ3Gugr-3">
          <mxGeometry x="297" width="34" height="30" as="geometry">
            <mxRectangle width="34" height="30" as="alternateBounds" />
          </mxGeometry>
        </mxCell>
        <mxCell id="gsuWn9FiaypVqOQ3Gugr-14" value="-4" style="shape=partialRectangle;html=1;whiteSpace=wrap;connectable=0;strokeColor=#3A5431;overflow=hidden;fillColor=#6d8764;top=0;left=0;bottom=0;right=0;pointerEvents=1;fontSize=16;fontColor=#ffffff;" vertex="1" parent="gsuWn9FiaypVqOQ3Gugr-3">
          <mxGeometry x="331" width="33" height="30" as="geometry">
            <mxRectangle width="33" height="30" as="alternateBounds" />
          </mxGeometry>
        </mxCell>
        <mxCell id="gsuWn9FiaypVqOQ3Gugr-15" value="11" style="shape=partialRectangle;html=1;whiteSpace=wrap;connectable=0;strokeColor=#3A5431;overflow=hidden;fillColor=#6d8764;top=0;left=0;bottom=0;right=0;pointerEvents=1;fontSize=16;fontColor=#ffffff;" vertex="1" parent="gsuWn9FiaypVqOQ3Gugr-3">
          <mxGeometry x="364" width="33" height="30" as="geometry">
            <mxRectangle width="33" height="30" as="alternateBounds" />
          </mxGeometry>
        </mxCell>
        <mxCell id="gsuWn9FiaypVqOQ3Gugr-16" value="6" style="shape=partialRectangle;html=1;whiteSpace=wrap;connectable=0;strokeColor=#3A5431;overflow=hidden;fillColor=#6d8764;top=0;left=0;bottom=0;right=0;pointerEvents=1;fontSize=16;fontColor=#ffffff;" vertex="1" parent="gsuWn9FiaypVqOQ3Gugr-3">
          <mxGeometry x="397" width="33" height="30" as="geometry">
            <mxRectangle width="33" height="30" as="alternateBounds" />
          </mxGeometry>
        </mxCell>
        <mxCell id="gsuWn9FiaypVqOQ3Gugr-17" value="6" style="shape=partialRectangle;html=1;whiteSpace=wrap;connectable=0;strokeColor=#3A5431;overflow=hidden;fillColor=#6d8764;top=0;left=0;bottom=0;right=0;pointerEvents=1;fontSize=16;fontColor=#ffffff;" vertex="1" parent="gsuWn9FiaypVqOQ3Gugr-3">
          <mxGeometry x="430" width="34" height="30" as="geometry">
            <mxRectangle width="34" height="30" as="alternateBounds" />
          </mxGeometry>
        </mxCell>
        <mxCell id="gsuWn9FiaypVqOQ3Gugr-18" value="15" style="shape=partialRectangle;html=1;whiteSpace=wrap;connectable=0;strokeColor=#3A5431;overflow=hidden;fillColor=#6d8764;top=0;left=0;bottom=0;right=0;pointerEvents=1;fontSize=16;fontColor=#ffffff;" vertex="1" parent="gsuWn9FiaypVqOQ3Gugr-3">
          <mxGeometry x="464" width="32" height="30" as="geometry">
            <mxRectangle width="32" height="30" as="alternateBounds" />
          </mxGeometry>
        </mxCell>
        <mxCell id="gsuWn9FiaypVqOQ3Gugr-19" value="19" style="shape=partialRectangle;html=1;whiteSpace=wrap;connectable=0;strokeColor=inherit;overflow=hidden;fillColor=none;top=0;left=0;bottom=0;right=0;pointerEvents=1;fontSize=16;" vertex="1" parent="gsuWn9FiaypVqOQ3Gugr-3">
          <mxGeometry x="496" width="34" height="30" as="geometry">
            <mxRectangle width="34" height="30" as="alternateBounds" />
          </mxGeometry>
        </mxCell>
        <mxCell id="gsuWn9FiaypVqOQ3Gugr-20" value="22" style="shape=partialRectangle;html=1;whiteSpace=wrap;connectable=0;strokeColor=inherit;overflow=hidden;fillColor=none;top=0;left=0;bottom=0;right=0;pointerEvents=1;fontSize=16;" vertex="1" parent="gsuWn9FiaypVqOQ3Gugr-3">
          <mxGeometry x="530" width="32" height="30" as="geometry">
            <mxRectangle width="32" height="30" as="alternateBounds" />
          </mxGeometry>
        </mxCell>
        <mxCell id="gsuWn9FiaypVqOQ3Gugr-21" value="4" style="shape=partialRectangle;html=1;whiteSpace=wrap;connectable=0;strokeColor=inherit;overflow=hidden;fillColor=none;top=0;left=0;bottom=0;right=0;pointerEvents=1;fontSize=16;" vertex="1" parent="gsuWn9FiaypVqOQ3Gugr-3">
          <mxGeometry x="562" width="33" height="30" as="geometry">
            <mxRectangle width="33" height="30" as="alternateBounds" />
          </mxGeometry>
        </mxCell>
        <mxCell id="gsuWn9FiaypVqOQ3Gugr-22" value="12" style="shape=partialRectangle;html=1;whiteSpace=wrap;connectable=0;strokeColor=inherit;overflow=hidden;fillColor=none;top=0;left=0;bottom=0;right=0;pointerEvents=1;fontSize=16;" vertex="1" parent="gsuWn9FiaypVqOQ3Gugr-3">
          <mxGeometry x="595" width="32" height="30" as="geometry">
            <mxRectangle width="32" height="30" as="alternateBounds" />
          </mxGeometry>
        </mxCell>
        <mxCell id="gsuWn9FiaypVqOQ3Gugr-23" value="9" style="shape=partialRectangle;html=1;whiteSpace=wrap;connectable=0;strokeColor=inherit;overflow=hidden;fillColor=none;top=0;left=0;bottom=0;right=0;pointerEvents=1;fontSize=16;" vertex="1" parent="gsuWn9FiaypVqOQ3Gugr-3">
          <mxGeometry x="627" width="33" height="30" as="geometry">
            <mxRectangle width="33" height="30" as="alternateBounds" />
          </mxGeometry>
        </mxCell>
        <mxCell id="gsuWn9FiaypVqOQ3Gugr-141" style="edgeStyle=orthogonalEdgeStyle;rounded=0;orthogonalLoop=1;jettySize=auto;html=1;exitX=0;exitY=0.5;exitDx=0;exitDy=0;fillColor=#60a917;strokeColor=#2D7600;" edge="1" parent="1" source="fu2yCZ1rVuJQljUfc8Ko-11">
          <mxGeometry relative="1" as="geometry">
            <mxPoint x="124" y="265" as="sourcePoint" />
            <mxPoint x="144" y="510" as="targetPoint" />
            <Array as="points">
              <mxPoint x="100" y="265" />
              <mxPoint x="100" y="440" />
              <mxPoint x="144" y="440" />
            </Array>
          </mxGeometry>
        </mxCell>
        <mxCell id="gsuWn9FiaypVqOQ3Gugr-164" style="edgeStyle=orthogonalEdgeStyle;rounded=0;orthogonalLoop=1;jettySize=auto;html=1;exitX=0.5;exitY=1;exitDx=0;exitDy=0;fillColor=#60a917;strokeColor=#2D7600;entryX=0.432;entryY=-0.035;entryDx=0;entryDy=0;entryPerimeter=0;" edge="1" parent="1" source="fu2yCZ1rVuJQljUfc8Ko-12">
          <mxGeometry relative="1" as="geometry">
            <mxPoint x="190" y="340" as="sourcePoint" />
            <mxPoint x="375.12" y="508.94999999999993" as="targetPoint" />
            <Array as="points">
              <mxPoint x="195" y="440" />
              <mxPoint x="375" y="440" />
            </Array>
          </mxGeometry>
        </mxCell>
        <mxCell id="gsuWn9FiaypVqOQ3Gugr-165" value="&lt;font face=&quot;Noto Sans&quot;&gt;Part&lt;/font&gt;" style="rounded=1;whiteSpace=wrap;html=1;absoluteArcSize=1;arcSize=14;strokeWidth=2;verticalAlign=top;fillColor=#dae8fc;strokeColor=#6c8ebf;" vertex="1" parent="1">
          <mxGeometry x="300" y="170" width="170" height="190" as="geometry" />
        </mxCell>
        <mxCell id="gsuWn9FiaypVqOQ3Gugr-175" style="edgeStyle=orthogonalEdgeStyle;rounded=0;orthogonalLoop=1;jettySize=auto;html=1;exitX=0.75;exitY=0;exitDx=0;exitDy=0;entryX=0.5;entryY=1;entryDx=0;entryDy=0;fillColor=#f0a30a;strokeColor=#BD7000;" edge="1" parent="1" source="gsuWn9FiaypVqOQ3Gugr-166" target="fu2yCZ1rVuJQljUfc8Ko-40">
          <mxGeometry relative="1" as="geometry">
            <Array as="points">
              <mxPoint x="425" y="200" />
            </Array>
          </mxGeometry>
        </mxCell>
        <mxCell id="gsuWn9FiaypVqOQ3Gugr-166" value="t3d_vert_load(buff[offset], 0, 70&lt;span style=&quot;background-color: initial;&quot;&gt;)&lt;/span&gt;" style="rounded=1;whiteSpace=wrap;html=1;absoluteArcSize=1;arcSize=14;strokeWidth=2;fontSize=10;fillColor=#ffe6cc;strokeColor=#d79b00;" vertex="1" parent="1">
          <mxGeometry x="310" y="200" width="150" height="30" as="geometry" />
        </mxCell>
        <mxCell id="gsuWn9FiaypVqOQ3Gugr-167" value="&lt;div&gt;t3d_tri_draw(0,1,2)&lt;/div&gt;&lt;div&gt;t3d_tri_draw(4,5,6)&lt;/div&gt;&lt;div&gt;...&lt;br&gt;&lt;/div&gt;" style="rounded=1;whiteSpace=wrap;html=1;absoluteArcSize=1;arcSize=14;strokeWidth=2;fontSize=10;fillColor=#d5e8d4;strokeColor=#82b366;" vertex="1" parent="1">
          <mxGeometry x="310" y="240" width="150" height="50" as="geometry" />
        </mxCell>
        <mxCell id="gsuWn9FiaypVqOQ3Gugr-168" value="&lt;div&gt;&lt;span style=&quot;background-color: initial;&quot;&gt;t3d_tri_draw_strip&lt;/span&gt;(indices[x], 12)&lt;/div&gt;&lt;div&gt;...&lt;br&gt;&lt;/div&gt;" style="rounded=1;whiteSpace=wrap;html=1;absoluteArcSize=1;arcSize=14;strokeWidth=2;fontSize=10;fillColor=#d5e8d4;strokeColor=#82b366;" vertex="1" parent="1">
          <mxGeometry x="310" y="300" width="150" height="40" as="geometry" />
        </mxCell>
        <mxCell id="gsuWn9FiaypVqOQ3Gugr-169" value="&lt;font face=&quot;Noto Sans&quot;&gt;Part&lt;/font&gt;" style="rounded=1;whiteSpace=wrap;html=1;absoluteArcSize=1;arcSize=14;strokeWidth=2;verticalAlign=top;fillColor=#dae8fc;strokeColor=#6c8ebf;" vertex="1" parent="1">
          <mxGeometry x="485" y="170" width="75" height="190" as="geometry" />
        </mxCell>
        <mxCell id="gsuWn9FiaypVqOQ3Gugr-170" value="..." style="text;html=1;align=center;verticalAlign=middle;resizable=0;points=[];autosize=1;strokeColor=none;fillColor=none;" vertex="1" parent="1">
          <mxGeometry x="507.5" y="240" width="30" height="30" as="geometry" />
        </mxCell>
        <mxCell id="gsuWn9FiaypVqOQ3Gugr-173" value="&lt;font face=&quot;Noto Sans&quot;&gt;Object&lt;/font&gt;" style="rounded=1;whiteSpace=wrap;html=1;absoluteArcSize=1;arcSize=14;strokeWidth=2;verticalAlign=top;" vertex="1" parent="1">
          <mxGeometry x="690" y="120" width="80" height="360" as="geometry" />
        </mxCell>
        <mxCell id="gsuWn9FiaypVqOQ3Gugr-174" value="..." style="text;html=1;align=center;verticalAlign=middle;resizable=0;points=[];autosize=1;strokeColor=none;fillColor=none;" vertex="1" parent="1">
          <mxGeometry x="715" y="280" width="30" height="30" as="geometry" />
        </mxCell>
      </root>
    </mxGraphModel>
  </diagram>
</mxfile>
